# xmcd CD database file generated by Grip 3.2.0
# 
# Track frame offsets:
#       150
#       24040
#       36427
#       58404
#       74310
#       96836
#       117519
#       135895
#       159978
#       177199
#       204618
#       216446
#       243486
# 
# Disc length: 3440 seconds
# 
# Revision: 4
# Processed by: cddbd v1.5.2PL0 Copyright (c) Steve Scherf et al.
# Submitted via: Grip 3.2.0
# 
DISCID=b90d6e0d
DTITLE=Various Artist - Blues Highlights Vol. 1
DYEAR=1996
DGENRE=Blues
TTITLE0=Frank Biner - Keepin' Bad Company
TTITLE1="Detroit" Gary Wiggins Group - I See You Comin'
TTITLE2=Jeanne  Carroll and Christian Christl - Little Red Rooster
TTITLE3=Gregor Hilden/H.D. Riesop and The Tone Company - The Rain Blues
TTITLE4=Angela Brown - I'm A Fool
TTITLE5=Steve Baker and Chris Jones - Waitin' On The ADAC
TTITLE6=Christian Bleiming - Sixth Avenue Stomp
TTITLE7=Jim Kahr - Rainy Night In Georgia
TTITLE8=Eb Davis Bluesband - Mr. DJ
TTITLE9=First Class Bluesband - Little Bluebird
TTITLE10=Albert C. Humphrey and Christian Christl - Lullu's Back In Town
TTITLE11=Meinert and Kropp - Innocence Is Gone
TTITLE12=Big  Jay McNeely and Christian Rannenberg - Catfish, Greens And Mashed P
TTITLE12=otatoes
EXTD=YEAR: 1996
EXTT0=
EXTT1=
EXTT2=
EXTT3=
EXTT4=
EXTT5=
EXTT6=
EXTT7=
EXTT8=
EXTT9=
EXTT10=
EXTT11=
EXTT12=
PLAYORDER=
